<svg width="416" height="181" viewBox="0 0 416 181" fill="none" xmlns="http://www.w3.org/2000/svg">
<path d="M13.0954 74.773C13.0954 91.8751 13.0954 108.977 13.0954 126.171C13.0954 127.36 13.004 128.64 12.5467 129.738C11.4492 132.573 8.52267 134.036 5.41319 133.487C2.48662 132.939 0.474609 130.195 0.474609 126.72C0.474609 119.678 0.474609 112.544 0.474609 105.502C0.474609 77.8825 0.474609 50.263 0.474609 22.6436C0.474609 18.5281 4.13282 15.5101 8.15684 16.2417C11.1749 16.7904 13.0954 19.1683 13.0954 22.4607C13.0954 31.972 13.0954 41.4833 13.0954 50.9032C13.0954 58.8598 13.0954 66.8164 13.0954 74.773Z" fill="black"/>
<path d="M101.898 74.6816C101.898 92.0581 101.898 109.435 101.898 126.811C101.898 132.207 96.9599 135.316 92.4786 132.756C90.2836 131.475 89.4605 129.372 89.4605 126.994C89.3691 123.244 89.4605 119.403 89.4605 115.653C89.4605 84.6502 89.4605 53.6469 89.4605 22.6436C89.4605 17.6135 93.7589 14.687 98.2402 16.699C100.801 17.7965 101.898 19.8999 101.898 22.6436C101.898 34.7157 101.898 46.7877 101.99 58.8598C101.898 64.0728 101.898 69.3772 101.898 74.6816Z" fill="black"/>
<path d="M35.8678 68.2797C50.3178 68.2797 64.5848 68.2797 79.0347 68.2797C79.0347 72.4866 79.0347 76.6936 79.0347 81.0834C60.5607 81.0834 42.0868 81.0834 23.5214 81.0834C23.5214 80.6261 23.4299 80.1689 23.4299 79.6201C23.4299 60.506 23.4299 41.3919 23.4299 22.2777C23.4299 18.6195 25.8992 16.2417 29.5574 16.1502C33.1242 16.0588 35.8678 18.711 35.8678 22.2777C35.8678 37.002 35.8678 51.7263 35.9593 66.4506C35.8678 66.9993 35.8678 67.5481 35.8678 68.2797Z" fill="black"/>
<path d="M79.1261 92.6982C79.1261 94.7102 79.1261 96.6308 79.1261 98.5514C79.1261 108.063 79.1261 117.574 79.1261 126.994C79.1261 131.475 75.5594 134.402 71.261 133.487C68.4258 132.847 66.5967 130.378 66.5967 126.902C66.5967 116.477 66.6882 106.142 66.6882 95.7163C66.6882 94.8017 66.6882 93.7957 66.6882 92.6982C70.8037 92.6982 74.8277 92.6982 79.1261 92.6982Z" fill="black"/>
<path d="M79.0347 57.1222C74.9192 57.1222 70.8952 57.1222 66.7797 57.1222C66.7797 56.5734 66.6883 56.2076 66.6883 55.7503C66.6883 44.6843 66.6883 33.5267 66.6883 22.4607C66.6883 19.4426 67.9686 17.5221 70.6208 16.6075C73.1816 15.693 75.6509 15.9673 77.3885 18.0708C78.3031 19.1683 79.0347 20.723 79.0347 22.0948C79.2176 33.6182 79.1262 45.1415 79.1262 56.6649C79.1262 56.6649 79.1262 56.8478 79.0347 57.1222Z" fill="black"/>
<path d="M23.5214 92.6068C27.7283 92.6068 31.6609 92.6068 35.7764 92.6068C35.7764 93.064 35.8678 93.5213 35.8678 93.8871C35.8678 104.953 35.8678 116.111 35.8678 127.177C35.8678 131.567 32.1182 134.493 27.8198 133.396C25.0761 132.664 23.4299 130.378 23.4299 127.268C23.4299 117.3 23.4299 107.331 23.4299 97.271C23.5214 95.8077 23.5214 94.253 23.5214 92.6068Z" fill="black"/>
<path d="M121.998 99.2131C121.998 92.4931 123.358 86.6131 126.078 81.5731C128.798 76.4531 132.518 72.4931 137.238 69.6931C142.038 66.8931 147.358 65.4931 153.198 65.4931C158.958 65.4931 163.958 66.7331 168.198 69.2131C172.438 71.6931 175.598 74.8131 177.678 78.5731V66.5731H188.718V132.333H177.678V120.093C175.518 123.933 172.278 127.133 167.958 129.693C163.718 132.173 158.758 133.413 153.078 133.413C147.238 133.413 141.958 131.973 137.238 129.093C132.518 126.213 128.798 122.173 126.078 116.973C123.358 111.773 121.998 105.853 121.998 99.2131ZM177.678 99.3331C177.678 94.3731 176.678 90.0531 174.678 86.3731C172.678 82.6931 169.958 79.8931 166.518 77.9731C163.158 75.9731 159.438 74.9731 155.358 74.9731C151.278 74.9731 147.558 75.9331 144.198 77.8531C140.838 79.7731 138.158 82.5731 136.158 86.2531C134.158 89.9331 133.158 94.2531 133.158 99.2131C133.158 104.253 134.158 108.653 136.158 112.413C138.158 116.093 140.838 118.933 144.198 120.933C147.558 122.853 151.278 123.813 155.358 123.813C159.438 123.813 163.158 122.853 166.518 120.933C169.958 118.933 172.678 116.093 174.678 112.413C176.678 108.653 177.678 104.293 177.678 99.3331ZM218.092 78.8131C220.332 74.8931 223.612 71.6931 227.932 69.2131C232.252 66.7331 237.172 65.4931 242.692 65.4931C248.612 65.4931 253.932 66.8931 258.652 69.6931C263.372 72.4931 267.092 76.4531 269.812 81.5731C272.532 86.6131 273.892 92.4931 273.892 99.2131C273.892 105.853 272.532 111.773 269.812 116.973C267.092 122.173 263.332 126.213 258.532 129.093C253.812 131.973 248.532 133.413 242.692 133.413C237.012 133.413 232.012 132.173 227.692 129.693C223.452 127.213 220.252 124.053 218.092 120.213V132.333H207.172V43.5331H218.092V78.8131ZM262.732 99.2131C262.732 94.2531 261.732 89.9331 259.732 86.2531C257.732 82.5731 255.012 79.7731 251.572 77.8531C248.212 75.9331 244.492 74.9731 240.412 74.9731C236.412 74.9731 232.692 75.9731 229.252 77.9731C225.892 79.8931 223.172 82.7331 221.092 86.4931C219.092 90.1731 218.092 94.4531 218.092 99.3331C218.092 104.293 219.092 108.653 221.092 112.413C223.172 116.093 225.892 118.933 229.252 120.933C232.692 122.853 236.412 123.813 240.412 123.813C244.492 123.813 248.212 122.853 251.572 120.933C255.012 118.933 257.732 116.093 259.732 112.413C261.732 108.653 262.732 104.253 262.732 99.2131ZM293.906 55.8931C291.826 55.8931 290.066 55.1731 288.626 53.7331C287.186 52.2931 286.466 50.5331 286.466 48.4531C286.466 46.3731 287.186 44.6131 288.626 43.1731C290.066 41.7331 291.826 41.0131 293.906 41.0131C295.906 41.0131 297.586 41.7331 298.946 43.1731C300.386 44.6131 301.106 46.3731 301.106 48.4531C301.106 50.5331 300.386 52.2931 298.946 53.7331C297.586 55.1731 295.906 55.8931 293.906 55.8931ZM299.186 66.5731V132.333H288.266V66.5731H299.186ZM331.117 75.5731V114.333C331.117 117.533 331.797 119.813 333.157 121.173C334.517 122.453 336.877 123.093 340.237 123.093H348.277V132.333H338.437C332.357 132.333 327.797 130.933 324.757 128.133C321.717 125.333 320.197 120.733 320.197 114.333V75.5731H311.677V66.5731H320.197V50.0131H331.117V66.5731H348.277V75.5731H331.117ZM384.788 133.413C379.748 133.413 375.228 132.573 371.228 130.893C367.228 129.133 364.068 126.733 361.748 123.693C359.428 120.573 358.148 117.013 357.908 113.013H369.188C369.508 116.293 371.028 118.973 373.748 121.053C376.548 123.133 380.188 124.173 384.668 124.173C388.828 124.173 392.108 123.253 394.508 121.413C396.908 119.573 398.108 117.253 398.108 114.453C398.108 111.573 396.828 109.453 394.268 108.093C391.708 106.653 387.748 105.253 382.388 103.893C377.508 102.613 373.508 101.333 370.388 100.053C367.348 98.6931 364.708 96.7331 362.468 94.1731C360.308 91.5331 359.228 88.0931 359.228 83.8531C359.228 80.4931 360.228 77.4131 362.228 74.6131C364.228 71.8131 367.068 69.6131 370.748 68.0131C374.428 66.3331 378.628 65.4931 383.348 65.4931C390.628 65.4931 396.508 67.3331 400.988 71.0131C405.468 74.6931 407.868 79.7331 408.188 86.1331H397.268C397.028 82.6931 395.628 79.9331 393.068 77.8531C390.588 75.7731 387.228 74.7331 382.988 74.7331C379.068 74.7331 375.948 75.5731 373.628 77.2531C371.308 78.9331 370.148 81.1331 370.148 83.8531C370.148 86.0131 370.828 87.8131 372.188 89.2531C373.628 90.6131 375.388 91.7331 377.468 92.6131C379.628 93.4131 382.588 94.3331 386.348 95.3731C391.068 96.6531 394.908 97.9331 397.868 99.2131C400.828 100.413 403.348 102.253 405.428 104.733C407.588 107.213 408.708 110.453 408.788 114.453C408.788 118.053 407.788 121.293 405.788 124.173C403.788 127.053 400.948 129.333 397.268 131.013C393.668 132.613 389.508 133.413 384.788 133.413Z" fill="black"/>
</svg>
