<svg width="1001" height="401" viewBox="0 0 1001 401" fill="none" xmlns="http://www.w3.org/2000/svg">
<rect x="0.792969" y="0.729736" width="1000" height="400" fill="#FDEEE4"/>
<path d="M305.732 185.17C305.732 202.272 305.732 219.374 305.732 236.567C305.732 237.756 305.64 239.037 305.183 240.134C304.085 242.969 301.159 244.433 298.049 243.884C295.123 243.335 293.111 240.591 293.111 237.116C293.111 230.074 293.111 222.941 293.111 215.899C293.111 188.279 293.111 160.66 293.111 133.04C293.111 128.925 296.769 125.907 300.793 126.638C303.811 127.187 305.732 129.565 305.732 132.857C305.732 142.369 305.732 151.88 305.732 161.3C305.732 169.256 305.732 177.213 305.732 185.17Z" fill="black"/>
<path d="M394.535 185.078C394.535 202.455 394.535 219.831 394.535 237.208C394.535 242.603 389.596 245.713 385.115 243.152C382.92 241.872 382.097 239.768 382.097 237.39C382.005 233.641 382.097 229.8 382.097 226.05C382.097 195.047 382.097 164.043 382.097 133.04C382.097 128.01 386.395 125.084 390.876 127.096C393.437 128.193 394.535 130.296 394.535 133.04C394.535 145.112 394.535 157.184 394.626 169.256C394.535 174.469 394.535 179.774 394.535 185.078Z" fill="black"/>
<path d="M328.504 178.676C342.954 178.676 357.221 178.676 371.671 178.676C371.671 182.883 371.671 187.09 371.671 191.48C353.197 191.48 334.723 191.48 316.158 191.48C316.158 191.023 316.066 190.565 316.066 190.017C316.066 170.903 316.066 151.788 316.066 132.674C316.066 129.016 318.535 126.638 322.194 126.547C325.76 126.455 328.504 129.108 328.504 132.674C328.504 147.399 328.504 162.123 328.596 176.847C328.504 177.396 328.504 177.945 328.504 178.676Z" fill="black"/>
<path d="M371.762 203.095C371.762 205.107 371.762 207.027 371.762 208.948C371.762 218.459 371.762 227.971 371.762 237.39C371.762 241.872 368.196 244.798 363.897 243.884C361.062 243.244 359.233 240.774 359.233 237.299C359.233 226.873 359.324 216.539 359.324 206.113C359.324 205.198 359.324 204.192 359.324 203.095C363.44 203.095 367.464 203.095 371.762 203.095Z" fill="black"/>
<path d="M371.671 167.519C367.555 167.519 363.531 167.519 359.416 167.519C359.416 166.97 359.325 166.604 359.325 166.147C359.325 155.081 359.325 143.923 359.325 132.857C359.325 129.839 360.605 127.919 363.257 127.004C365.818 126.09 368.287 126.364 370.025 128.467C370.939 129.565 371.671 131.12 371.671 132.491C371.854 144.015 371.762 155.538 371.762 167.061C371.762 167.061 371.762 167.244 371.671 167.519Z" fill="black"/>
<path d="M316.158 203.003C320.365 203.003 324.297 203.003 328.413 203.003C328.413 203.461 328.504 203.918 328.504 204.284C328.504 215.35 328.504 226.507 328.504 237.573C328.504 241.963 324.754 244.89 320.456 243.792C317.712 243.061 316.066 240.774 316.066 237.665C316.066 227.696 316.066 217.728 316.066 207.668C316.158 206.204 316.158 204.65 316.158 203.003Z" fill="black"/>
<path d="M414.635 209.61C414.635 202.89 415.995 197.01 418.715 191.97C421.435 186.85 425.155 182.89 429.875 180.09C434.675 177.29 439.995 175.89 445.835 175.89C451.595 175.89 456.595 177.13 460.835 179.61C465.075 182.09 468.235 185.21 470.315 188.97V176.97H481.355V242.73H470.315V230.49C468.155 234.33 464.915 237.53 460.595 240.09C456.355 242.57 451.395 243.81 445.715 243.81C439.875 243.81 434.595 242.37 429.875 239.49C425.155 236.61 421.435 232.57 418.715 227.37C415.995 222.17 414.635 216.25 414.635 209.61ZM470.315 209.73C470.315 204.77 469.315 200.45 467.315 196.77C465.315 193.09 462.595 190.29 459.155 188.37C455.795 186.37 452.075 185.37 447.995 185.37C443.915 185.37 440.195 186.33 436.835 188.25C433.475 190.17 430.795 192.97 428.795 196.65C426.795 200.33 425.795 204.65 425.795 209.61C425.795 214.65 426.795 219.05 428.795 222.81C430.795 226.49 433.475 229.33 436.835 231.33C440.195 233.25 443.915 234.21 447.995 234.21C452.075 234.21 455.795 233.25 459.155 231.33C462.595 229.33 465.315 226.49 467.315 222.81C469.315 219.05 470.315 214.69 470.315 209.73ZM510.728 189.21C512.968 185.29 516.248 182.09 520.568 179.61C524.888 177.13 529.808 175.89 535.328 175.89C541.248 175.89 546.568 177.29 551.288 180.09C556.008 182.89 559.728 186.85 562.448 191.97C565.168 197.01 566.528 202.89 566.528 209.61C566.528 216.25 565.168 222.17 562.448 227.37C559.728 232.57 555.968 236.61 551.168 239.49C546.448 242.37 541.168 243.81 535.328 243.81C529.648 243.81 524.648 242.57 520.328 240.09C516.088 237.61 512.888 234.45 510.728 230.61V242.73H499.808V153.93H510.728V189.21ZM555.368 209.61C555.368 204.65 554.368 200.33 552.368 196.65C550.368 192.97 547.648 190.17 544.208 188.25C540.848 186.33 537.128 185.37 533.048 185.37C529.048 185.37 525.328 186.37 521.888 188.37C518.528 190.29 515.808 193.13 513.728 196.89C511.728 200.57 510.728 204.85 510.728 209.73C510.728 214.69 511.728 219.05 513.728 222.81C515.808 226.49 518.528 229.33 521.888 231.33C525.328 233.25 529.048 234.21 533.048 234.21C537.128 234.21 540.848 233.25 544.208 231.33C547.648 229.33 550.368 226.49 552.368 222.81C554.368 219.05 555.368 214.65 555.368 209.61ZM586.542 166.29C584.462 166.29 582.702 165.57 581.262 164.13C579.822 162.69 579.102 160.93 579.102 158.85C579.102 156.77 579.822 155.01 581.262 153.57C582.702 152.13 584.462 151.41 586.542 151.41C588.542 151.41 590.222 152.13 591.582 153.57C593.022 155.01 593.742 156.77 593.742 158.85C593.742 160.93 593.022 162.69 591.582 164.13C590.222 165.57 588.542 166.29 586.542 166.29ZM591.822 176.97V242.73H580.902V176.97H591.822ZM623.753 185.97V224.73C623.753 227.93 624.433 230.21 625.793 231.57C627.153 232.85 629.513 233.49 632.873 233.49H640.913V242.73H631.073C624.993 242.73 620.433 241.33 617.393 238.53C614.353 235.73 612.833 231.13 612.833 224.73V185.97H604.313V176.97H612.833V160.41H623.753V176.97H640.913V185.97H623.753ZM677.424 243.81C672.384 243.81 667.864 242.97 663.864 241.29C659.864 239.53 656.704 237.13 654.384 234.09C652.064 230.97 650.784 227.41 650.544 223.41H661.824C662.144 226.69 663.664 229.37 666.384 231.45C669.184 233.53 672.824 234.57 677.304 234.57C681.464 234.57 684.744 233.65 687.144 231.81C689.544 229.97 690.744 227.65 690.744 224.85C690.744 221.97 689.464 219.85 686.904 218.49C684.344 217.05 680.384 215.65 675.024 214.29C670.144 213.01 666.144 211.73 663.024 210.45C659.984 209.09 657.344 207.13 655.104 204.57C652.944 201.93 651.864 198.49 651.864 194.25C651.864 190.89 652.864 187.81 654.864 185.01C656.864 182.21 659.704 180.01 663.384 178.41C667.064 176.73 671.264 175.89 675.984 175.89C683.264 175.89 689.144 177.73 693.624 181.41C698.104 185.09 700.504 190.13 700.824 196.53H689.904C689.664 193.09 688.264 190.33 685.704 188.25C683.224 186.17 679.864 185.13 675.624 185.13C671.704 185.13 668.584 185.97 666.264 187.65C663.944 189.33 662.784 191.53 662.784 194.25C662.784 196.41 663.464 198.21 664.824 199.65C666.264 201.01 668.024 202.13 670.104 203.01C672.264 203.81 675.224 204.73 678.984 205.77C683.704 207.05 687.544 208.33 690.504 209.61C693.464 210.81 695.984 212.65 698.064 215.13C700.224 217.61 701.344 220.85 701.424 224.85C701.424 228.45 700.424 231.69 698.424 234.57C696.424 237.45 693.584 239.73 689.904 241.41C686.304 243.01 682.144 243.81 677.424 243.81Z" fill="black"/>
</svg>
