<svg width="1001" height="401" viewBox="0 0 1001 401" fill="none" xmlns="http://www.w3.org/2000/svg">
<rect x="0.803711" y="0.309692" width="1000" height="400" fill="#FF4E28"/>
<path d="M306.854 184.957C306.854 202.059 306.854 219.161 306.854 236.355C306.854 237.544 306.762 238.824 306.305 239.922C305.208 242.757 302.281 244.22 299.171 243.671C296.245 243.123 294.233 240.379 294.233 236.904C294.233 229.862 294.233 222.728 294.233 215.686C294.233 188.067 294.233 160.447 294.233 132.828C294.233 128.712 297.891 125.694 301.915 126.426C304.933 126.975 306.854 129.352 306.854 132.645C306.854 142.156 306.854 151.668 306.854 161.087C306.854 169.044 306.854 177.001 306.854 184.957Z" fill="white"/>
<path d="M395.657 184.866C395.657 202.242 395.657 219.619 395.657 236.995C395.657 242.391 390.718 245.501 386.237 242.94C384.042 241.659 383.219 239.556 383.219 237.178C383.127 233.428 383.219 229.587 383.219 225.838C383.219 194.834 383.219 163.831 383.219 132.828C383.219 127.798 387.517 124.871 391.999 126.883C394.559 127.981 395.657 130.084 395.657 132.828C395.657 144.9 395.657 156.972 395.748 169.044C395.657 174.257 395.657 179.561 395.657 184.866Z" fill="white"/>
<path d="M329.626 178.464C344.076 178.464 358.343 178.464 372.793 178.464C372.793 182.671 372.793 186.878 372.793 191.268C354.319 191.268 335.845 191.268 317.28 191.268C317.28 190.81 317.188 190.353 317.188 189.804C317.188 170.69 317.188 151.576 317.188 132.462C317.188 128.804 319.658 126.426 323.316 126.334C326.882 126.243 329.626 128.895 329.626 132.462C329.626 147.186 329.626 161.91 329.718 176.635C329.626 177.184 329.626 177.732 329.626 178.464Z" fill="white"/>
<path d="M372.884 202.882C372.884 204.894 372.884 206.815 372.884 208.736C372.884 218.247 372.884 227.758 372.884 237.178C372.884 241.659 369.318 244.586 365.019 243.671C362.184 243.031 360.355 240.562 360.355 237.087C360.355 226.661 360.447 216.326 360.447 205.9C360.447 204.986 360.447 203.98 360.447 202.882C364.562 202.882 368.586 202.882 372.884 202.882Z" fill="white"/>
<path d="M372.793 167.306C368.678 167.306 364.654 167.306 360.538 167.306C360.538 166.758 360.447 166.392 360.447 165.935C360.447 154.868 360.447 143.711 360.447 132.645C360.447 129.627 361.727 127.706 364.379 126.792C366.94 125.877 369.409 126.152 371.147 128.255C372.061 129.352 372.793 130.907 372.793 132.279C372.976 143.802 372.884 155.326 372.884 166.849C372.884 166.849 372.884 167.032 372.793 167.306Z" fill="white"/>
<path d="M317.28 202.791C321.487 202.791 325.419 202.791 329.535 202.791C329.535 203.248 329.626 203.706 329.626 204.071C329.626 215.137 329.626 226.295 329.626 237.361C329.626 241.751 325.876 244.677 321.578 243.58C318.834 242.848 317.188 240.562 317.188 237.452C317.188 227.484 317.188 217.515 317.188 207.455C317.28 205.992 317.28 204.437 317.28 202.791Z" fill="white"/>
<path d="M414.242 209.397C414.242 202.677 415.602 196.797 418.322 191.757C421.042 186.637 424.762 182.677 429.482 179.877C434.282 177.077 439.602 175.677 445.442 175.677C451.202 175.677 456.202 176.917 460.442 179.397C464.682 181.877 467.842 184.997 469.922 188.757V176.757H480.962V242.517H469.922V230.277C467.762 234.117 464.522 237.317 460.202 239.877C455.962 242.357 451.002 243.597 445.322 243.597C439.482 243.597 434.202 242.157 429.482 239.277C424.762 236.397 421.042 232.357 418.322 227.157C415.602 221.957 414.242 216.037 414.242 209.397ZM469.922 209.517C469.922 204.557 468.922 200.237 466.922 196.557C464.922 192.877 462.202 190.077 458.762 188.157C455.402 186.157 451.682 185.157 447.602 185.157C443.522 185.157 439.802 186.117 436.442 188.037C433.082 189.957 430.402 192.757 428.402 196.437C426.402 200.117 425.402 204.437 425.402 209.397C425.402 214.437 426.402 218.837 428.402 222.597C430.402 226.277 433.082 229.117 436.442 231.117C439.802 233.037 443.522 233.997 447.602 233.997C451.682 233.997 455.402 233.037 458.762 231.117C462.202 229.117 464.922 226.277 466.922 222.597C468.922 218.837 469.922 214.477 469.922 209.517ZM510.335 188.997C512.575 185.077 515.855 181.877 520.175 179.397C524.495 176.917 529.415 175.677 534.935 175.677C540.855 175.677 546.175 177.077 550.895 179.877C555.615 182.677 559.335 186.637 562.055 191.757C564.775 196.797 566.135 202.677 566.135 209.397C566.135 216.037 564.775 221.957 562.055 227.157C559.335 232.357 555.575 236.397 550.775 239.277C546.055 242.157 540.775 243.597 534.935 243.597C529.255 243.597 524.255 242.357 519.935 239.877C515.695 237.397 512.495 234.237 510.335 230.397V242.517H499.415V153.717H510.335V188.997ZM554.975 209.397C554.975 204.437 553.975 200.117 551.975 196.437C549.975 192.757 547.255 189.957 543.815 188.037C540.455 186.117 536.735 185.157 532.655 185.157C528.655 185.157 524.935 186.157 521.495 188.157C518.135 190.077 515.415 192.917 513.335 196.677C511.335 200.357 510.335 204.637 510.335 209.517C510.335 214.477 511.335 218.837 513.335 222.597C515.415 226.277 518.135 229.117 521.495 231.117C524.935 233.037 528.655 233.997 532.655 233.997C536.735 233.997 540.455 233.037 543.815 231.117C547.255 229.117 549.975 226.277 551.975 222.597C553.975 218.837 554.975 214.437 554.975 209.397ZM586.149 166.077C584.069 166.077 582.309 165.357 580.869 163.917C579.429 162.477 578.709 160.717 578.709 158.637C578.709 156.557 579.429 154.797 580.869 153.357C582.309 151.917 584.069 151.197 586.149 151.197C588.149 151.197 589.829 151.917 591.189 153.357C592.629 154.797 593.349 156.557 593.349 158.637C593.349 160.717 592.629 162.477 591.189 163.917C589.829 165.357 588.149 166.077 586.149 166.077ZM591.429 176.757V242.517H580.509V176.757H591.429ZM623.36 185.757V224.517C623.36 227.717 624.04 229.997 625.4 231.357C626.76 232.637 629.12 233.277 632.48 233.277H640.52V242.517H630.68C624.6 242.517 620.04 241.117 617 238.317C613.96 235.517 612.44 230.917 612.44 224.517V185.757H603.92V176.757H612.44V160.197H623.36V176.757H640.52V185.757H623.36ZM677.031 243.597C671.991 243.597 667.471 242.757 663.471 241.077C659.471 239.317 656.311 236.917 653.991 233.877C651.671 230.757 650.391 227.197 650.151 223.197H661.431C661.751 226.477 663.271 229.157 665.991 231.237C668.791 233.317 672.431 234.357 676.911 234.357C681.071 234.357 684.351 233.437 686.751 231.597C689.151 229.757 690.351 227.437 690.351 224.637C690.351 221.757 689.071 219.637 686.511 218.277C683.951 216.837 679.991 215.437 674.631 214.077C669.751 212.797 665.751 211.517 662.631 210.237C659.591 208.877 656.951 206.917 654.711 204.357C652.551 201.717 651.471 198.277 651.471 194.037C651.471 190.677 652.471 187.597 654.471 184.797C656.471 181.997 659.311 179.797 662.991 178.197C666.671 176.517 670.871 175.677 675.591 175.677C682.871 175.677 688.751 177.517 693.231 181.197C697.711 184.877 700.111 189.917 700.431 196.317H689.511C689.271 192.877 687.871 190.117 685.311 188.037C682.831 185.957 679.471 184.917 675.231 184.917C671.311 184.917 668.191 185.757 665.871 187.437C663.551 189.117 662.391 191.317 662.391 194.037C662.391 196.197 663.071 197.997 664.431 199.437C665.871 200.797 667.631 201.917 669.711 202.797C671.871 203.597 674.831 204.517 678.591 205.557C683.311 206.837 687.151 208.117 690.111 209.397C693.071 210.597 695.591 212.437 697.671 214.917C699.831 217.397 700.951 220.637 701.031 224.637C701.031 228.237 700.031 231.477 698.031 234.357C696.031 237.237 693.191 239.517 689.511 241.197C685.911 242.797 681.751 243.597 677.031 243.597Z" fill="white"/>
</svg>
