<svg width="417" height="181" viewBox="0 0 417 181" fill="none" xmlns="http://www.w3.org/2000/svg">
<path d="M13.3484 74.773C13.3484 91.8751 13.3484 108.977 13.3484 126.171C13.3484 127.36 13.2569 128.64 12.7996 129.738C11.7022 132.573 8.7756 134.036 5.66612 133.487C2.73955 132.939 0.727539 130.195 0.727539 126.72C0.727539 119.678 0.727539 112.544 0.727539 105.502C0.727539 77.8825 0.727539 50.263 0.727539 22.6436C0.727539 18.5281 4.38575 15.5101 8.40977 16.2417C11.4278 16.7904 13.3484 19.1683 13.3484 22.4607C13.3484 31.972 13.3484 41.4833 13.3484 50.9032C13.3484 58.8598 13.3484 66.8164 13.3484 74.773Z" fill="#FF4E28"/>
<path d="M102.151 74.6816C102.151 92.0581 102.151 109.435 102.151 126.811C102.151 132.207 97.2128 135.316 92.7315 132.756C90.5366 131.475 89.7135 129.372 89.7135 126.994C89.622 123.244 89.7135 119.403 89.7135 115.653C89.7135 84.6502 89.7135 53.6469 89.7135 22.6436C89.7135 17.6135 94.0119 14.687 98.4932 16.699C101.054 17.7965 102.151 19.8999 102.151 22.6436C102.151 34.7157 102.151 46.7877 102.243 58.8598C102.151 64.0728 102.151 69.3772 102.151 74.6816Z" fill="#FF4E28"/>
<path d="M36.1208 68.2797C50.5707 68.2797 64.8377 68.2797 79.2876 68.2797C79.2876 72.4866 79.2876 76.6936 79.2876 81.0834C60.8137 81.0834 42.3397 81.0834 23.7743 81.0834C23.7743 80.6261 23.6829 80.1689 23.6829 79.6201C23.6829 60.506 23.6829 41.3919 23.6829 22.2777C23.6829 18.6195 26.1522 16.2417 29.8104 16.1502C33.3771 16.0588 36.1208 18.711 36.1208 22.2777C36.1208 37.002 36.1208 51.7263 36.2122 66.4506C36.1208 66.9993 36.1208 67.5481 36.1208 68.2797Z" fill="#FF4E28"/>
<path d="M79.379 92.6982C79.379 94.7102 79.379 96.6308 79.379 98.5514C79.379 108.063 79.379 117.574 79.379 126.994C79.379 131.475 75.8123 134.402 71.5139 133.487C68.6788 132.847 66.8497 130.378 66.8497 126.902C66.8497 116.477 66.9411 106.142 66.9411 95.7163C66.9411 94.8017 66.9411 93.7957 66.9411 92.6982C71.0566 92.6982 75.0806 92.6982 79.379 92.6982Z" fill="#FF4E28"/>
<path d="M79.2877 57.1222C75.1722 57.1222 71.1481 57.1222 67.0327 57.1222C67.0327 56.5734 66.9412 56.2076 66.9412 55.7503C66.9412 44.6843 66.9412 33.5267 66.9412 22.4607C66.9412 19.4426 68.2216 17.5221 70.8738 16.6075C73.4345 15.693 75.9038 15.9673 77.6415 18.0708C78.556 19.1683 79.2877 20.723 79.2877 22.0948C79.4706 33.6182 79.3791 45.1415 79.3791 56.6649C79.3791 56.6649 79.3791 56.8478 79.2877 57.1222Z" fill="#FF4E28"/>
<path d="M23.7743 92.6068C27.9813 92.6068 31.9138 92.6068 36.0293 92.6068C36.0293 93.064 36.1208 93.5213 36.1208 93.8871C36.1208 104.953 36.1208 116.111 36.1208 127.177C36.1208 131.567 32.3711 134.493 28.0727 133.396C25.3291 132.664 23.6829 130.378 23.6829 127.268C23.6829 117.3 23.6829 107.331 23.6829 97.271C23.7743 95.8077 23.7743 94.253 23.7743 92.6068Z" fill="#FF4E28"/>
<path d="M122.251 99.2131C122.251 92.4931 123.611 86.6131 126.331 81.5731C129.051 76.4531 132.771 72.4931 137.491 69.6931C142.291 66.8931 147.611 65.4931 153.451 65.4931C159.211 65.4931 164.211 66.7331 168.451 69.2131C172.691 71.6931 175.851 74.8131 177.931 78.5731V66.5731H188.971V132.333H177.931V120.093C175.771 123.933 172.531 127.133 168.211 129.693C163.971 132.173 159.011 133.413 153.331 133.413C147.491 133.413 142.211 131.973 137.491 129.093C132.771 126.213 129.051 122.173 126.331 116.973C123.611 111.773 122.251 105.853 122.251 99.2131ZM177.931 99.3331C177.931 94.3731 176.931 90.0531 174.931 86.3731C172.931 82.6931 170.211 79.8931 166.771 77.9731C163.411 75.9731 159.691 74.9731 155.611 74.9731C151.531 74.9731 147.811 75.9331 144.451 77.8531C141.091 79.7731 138.411 82.5731 136.411 86.2531C134.411 89.9331 133.411 94.2531 133.411 99.2131C133.411 104.253 134.411 108.653 136.411 112.413C138.411 116.093 141.091 118.933 144.451 120.933C147.811 122.853 151.531 123.813 155.611 123.813C159.691 123.813 163.411 122.853 166.771 120.933C170.211 118.933 172.931 116.093 174.931 112.413C176.931 108.653 177.931 104.293 177.931 99.3331ZM218.345 78.8131C220.585 74.8931 223.865 71.6931 228.185 69.2131C232.505 66.7331 237.425 65.4931 242.945 65.4931C248.865 65.4931 254.185 66.8931 258.905 69.6931C263.625 72.4931 267.345 76.4531 270.065 81.5731C272.785 86.6131 274.145 92.4931 274.145 99.2131C274.145 105.853 272.785 111.773 270.065 116.973C267.345 122.173 263.585 126.213 258.785 129.093C254.065 131.973 248.785 133.413 242.945 133.413C237.265 133.413 232.265 132.173 227.945 129.693C223.705 127.213 220.505 124.053 218.345 120.213V132.333H207.425V43.5331H218.345V78.8131ZM262.985 99.2131C262.985 94.2531 261.985 89.9331 259.985 86.2531C257.985 82.5731 255.265 79.7731 251.825 77.8531C248.465 75.9331 244.745 74.9731 240.665 74.9731C236.665 74.9731 232.945 75.9731 229.505 77.9731C226.145 79.8931 223.425 82.7331 221.345 86.4931C219.345 90.1731 218.345 94.4531 218.345 99.3331C218.345 104.293 219.345 108.653 221.345 112.413C223.425 116.093 226.145 118.933 229.505 120.933C232.945 122.853 236.665 123.813 240.665 123.813C244.745 123.813 248.465 122.853 251.825 120.933C255.265 118.933 257.985 116.093 259.985 112.413C261.985 108.653 262.985 104.253 262.985 99.2131ZM294.159 55.8931C292.079 55.8931 290.319 55.1731 288.879 53.7331C287.439 52.2931 286.719 50.5331 286.719 48.4531C286.719 46.3731 287.439 44.6131 288.879 43.1731C290.319 41.7331 292.079 41.0131 294.159 41.0131C296.159 41.0131 297.839 41.7331 299.199 43.1731C300.639 44.6131 301.359 46.3731 301.359 48.4531C301.359 50.5331 300.639 52.2931 299.199 53.7331C297.839 55.1731 296.159 55.8931 294.159 55.8931ZM299.439 66.5731V132.333H288.519V66.5731H299.439ZM331.37 75.5731V114.333C331.37 117.533 332.05 119.813 333.41 121.173C334.77 122.453 337.13 123.093 340.49 123.093H348.53V132.333H338.69C332.61 132.333 328.05 130.933 325.01 128.133C321.97 125.333 320.45 120.733 320.45 114.333V75.5731H311.93V66.5731H320.45V50.0131H331.37V66.5731H348.53V75.5731H331.37ZM385.041 133.413C380.001 133.413 375.481 132.573 371.481 130.893C367.481 129.133 364.321 126.733 362.001 123.693C359.681 120.573 358.401 117.013 358.161 113.013H369.441C369.761 116.293 371.281 118.973 374.001 121.053C376.801 123.133 380.441 124.173 384.921 124.173C389.081 124.173 392.361 123.253 394.761 121.413C397.161 119.573 398.361 117.253 398.361 114.453C398.361 111.573 397.081 109.453 394.521 108.093C391.961 106.653 388.001 105.253 382.641 103.893C377.761 102.613 373.761 101.333 370.641 100.053C367.601 98.6931 364.961 96.7331 362.721 94.1731C360.561 91.5331 359.481 88.0931 359.481 83.8531C359.481 80.4931 360.481 77.4131 362.481 74.6131C364.481 71.8131 367.321 69.6131 371.001 68.0131C374.681 66.3331 378.881 65.4931 383.601 65.4931C390.881 65.4931 396.761 67.3331 401.241 71.0131C405.721 74.6931 408.121 79.7331 408.441 86.1331H397.521C397.281 82.6931 395.881 79.9331 393.321 77.8531C390.841 75.7731 387.481 74.7331 383.241 74.7331C379.321 74.7331 376.201 75.5731 373.881 77.2531C371.561 78.9331 370.401 81.1331 370.401 83.8531C370.401 86.0131 371.081 87.8131 372.441 89.2531C373.881 90.6131 375.641 91.7331 377.721 92.6131C379.881 93.4131 382.841 94.3331 386.601 95.3731C391.321 96.6531 395.161 97.9331 398.121 99.2131C401.081 100.413 403.601 102.253 405.681 104.733C407.841 107.213 408.961 110.453 409.041 114.453C409.041 118.053 408.041 121.293 406.041 124.173C404.041 127.053 401.201 129.333 397.521 131.013C393.921 132.613 389.761 133.413 385.041 133.413Z" fill="#FF4E28"/>
</svg>
