<svg width="416" height="181" viewBox="0 0 416 181" fill="none" xmlns="http://www.w3.org/2000/svg">
<path d="M12.6208 74.773C12.6208 91.8751 12.6208 108.977 12.6208 126.171C12.6208 127.36 12.5294 128.64 12.0721 129.738C10.9746 132.573 8.04806 134.036 4.93858 133.487C2.01202 132.939 0 130.195 0 126.72C0 119.678 0 112.544 0 105.502C0 77.8825 0 50.263 0 22.6436C0 18.5281 3.65821 15.5101 7.68224 16.2417C10.7003 16.7904 12.6208 19.1683 12.6208 22.4607C12.6208 31.972 12.6208 41.4833 12.6208 50.9032C12.6208 58.8598 12.6208 66.8164 12.6208 74.773Z" fill="white"/>
<path d="M101.424 74.6816C101.424 92.0581 101.424 109.435 101.424 126.811C101.424 132.207 96.4853 135.316 92.004 132.756C89.809 131.475 88.9859 129.372 88.9859 126.994C88.8945 123.244 88.9859 119.403 88.9859 115.653C88.9859 84.6502 88.9859 53.6469 88.9859 22.6436C88.9859 17.6135 93.2843 14.687 97.7656 16.699C100.326 17.7965 101.424 19.8999 101.424 22.6436C101.424 34.7157 101.424 46.7877 101.515 58.8598C101.424 64.0728 101.424 69.3772 101.424 74.6816Z" fill="white"/>
<path d="M35.3932 68.2797C49.8431 68.2797 64.1102 68.2797 78.5601 68.2797C78.5601 72.4866 78.5601 76.6936 78.5601 81.0834C60.0861 81.0834 41.6122 81.0834 23.0468 81.0834C23.0468 80.6261 22.9553 80.1689 22.9553 79.6201C22.9553 60.506 22.9553 41.3919 22.9553 22.2777C22.9553 18.6195 25.4246 16.2417 29.0828 16.1502C32.6496 16.0588 35.3932 18.711 35.3932 22.2777C35.3932 37.002 35.3932 51.7263 35.4847 66.4506C35.3932 66.9993 35.3932 67.5481 35.3932 68.2797Z" fill="white"/>
<path d="M78.6515 92.6982C78.6515 94.7102 78.6515 96.6308 78.6515 98.5514C78.6515 108.063 78.6515 117.574 78.6515 126.994C78.6515 131.475 75.0847 134.402 70.7863 133.487C67.9512 132.847 66.1221 130.378 66.1221 126.902C66.1221 116.477 66.2136 106.142 66.2136 95.7163C66.2136 94.8017 66.2136 93.7957 66.2136 92.6982C70.3291 92.6982 74.3531 92.6982 78.6515 92.6982Z" fill="white"/>
<path d="M78.5601 57.1222C74.4446 57.1222 70.4206 57.1222 66.3051 57.1222C66.3051 56.5734 66.2137 56.2076 66.2137 55.7503C66.2137 44.6843 66.2137 33.5267 66.2137 22.4607C66.2137 19.4426 67.494 17.5221 70.1462 16.6075C72.707 15.693 75.1763 15.9673 76.9139 18.0708C77.8285 19.1683 78.5601 20.723 78.5601 22.0948C78.743 33.6182 78.6516 45.1415 78.6516 56.6649C78.6516 56.6649 78.6516 56.8478 78.5601 57.1222Z" fill="white"/>
<path d="M23.0468 92.6068C27.2537 92.6068 31.1863 92.6068 35.3018 92.6068C35.3018 93.064 35.3932 93.5213 35.3932 93.8871C35.3932 104.953 35.3932 116.111 35.3932 127.177C35.3932 131.567 31.6436 134.493 27.3452 133.396C24.6015 132.664 22.9553 130.378 22.9553 127.268C22.9553 117.3 22.9553 107.331 22.9553 97.271C23.0468 95.8077 23.0468 94.253 23.0468 92.6068Z" fill="white"/>
<path d="M121.524 99.2131C121.524 92.4931 122.884 86.6131 125.604 81.5731C128.324 76.4531 132.044 72.4931 136.764 69.6931C141.564 66.8931 146.884 65.4931 152.724 65.4931C158.484 65.4931 163.484 66.7331 167.724 69.2131C171.964 71.6931 175.124 74.8131 177.204 78.5731V66.5731H188.244V132.333H177.204V120.093C175.044 123.933 171.804 127.133 167.484 129.693C163.244 132.173 158.284 133.413 152.604 133.413C146.764 133.413 141.484 131.973 136.764 129.093C132.044 126.213 128.324 122.173 125.604 116.973C122.884 111.773 121.524 105.853 121.524 99.2131ZM177.204 99.3331C177.204 94.3731 176.204 90.0531 174.204 86.3731C172.204 82.6931 169.484 79.8931 166.044 77.9731C162.684 75.9731 158.964 74.9731 154.884 74.9731C150.804 74.9731 147.084 75.9331 143.724 77.8531C140.364 79.7731 137.684 82.5731 135.684 86.2531C133.684 89.9331 132.684 94.2531 132.684 99.2131C132.684 104.253 133.684 108.653 135.684 112.413C137.684 116.093 140.364 118.933 143.724 120.933C147.084 122.853 150.804 123.813 154.884 123.813C158.964 123.813 162.684 122.853 166.044 120.933C169.484 118.933 172.204 116.093 174.204 112.413C176.204 108.653 177.204 104.293 177.204 99.3331ZM217.618 78.8131C219.858 74.8931 223.138 71.6931 227.458 69.2131C231.778 66.7331 236.698 65.4931 242.218 65.4931C248.138 65.4931 253.458 66.8931 258.178 69.6931C262.898 72.4931 266.618 76.4531 269.338 81.5731C272.058 86.6131 273.418 92.4931 273.418 99.2131C273.418 105.853 272.058 111.773 269.338 116.973C266.618 122.173 262.858 126.213 258.058 129.093C253.338 131.973 248.058 133.413 242.218 133.413C236.538 133.413 231.538 132.173 227.218 129.693C222.978 127.213 219.778 124.053 217.618 120.213V132.333H206.698V43.5331H217.618V78.8131ZM262.258 99.2131C262.258 94.2531 261.258 89.9331 259.258 86.2531C257.258 82.5731 254.538 79.7731 251.098 77.8531C247.738 75.9331 244.018 74.9731 239.938 74.9731C235.938 74.9731 232.218 75.9731 228.778 77.9731C225.418 79.8931 222.698 82.7331 220.618 86.4931C218.618 90.1731 217.618 94.4531 217.618 99.3331C217.618 104.293 218.618 108.653 220.618 112.413C222.698 116.093 225.418 118.933 228.778 120.933C232.218 122.853 235.938 123.813 239.938 123.813C244.018 123.813 247.738 122.853 251.098 120.933C254.538 118.933 257.258 116.093 259.258 112.413C261.258 108.653 262.258 104.253 262.258 99.2131ZM293.431 55.8931C291.351 55.8931 289.591 55.1731 288.151 53.7331C286.711 52.2931 285.991 50.5331 285.991 48.4531C285.991 46.3731 286.711 44.6131 288.151 43.1731C289.591 41.7331 291.351 41.0131 293.431 41.0131C295.431 41.0131 297.111 41.7331 298.471 43.1731C299.911 44.6131 300.631 46.3731 300.631 48.4531C300.631 50.5331 299.911 52.2931 298.471 53.7331C297.111 55.1731 295.431 55.8931 293.431 55.8931ZM298.711 66.5731V132.333H287.791V66.5731H298.711ZM330.643 75.5731V114.333C330.643 117.533 331.323 119.813 332.683 121.173C334.043 122.453 336.403 123.093 339.763 123.093H347.803V132.333H337.963C331.883 132.333 327.323 130.933 324.283 128.133C321.243 125.333 319.723 120.733 319.723 114.333V75.5731H311.203V66.5731H319.723V50.0131H330.643V66.5731H347.803V75.5731H330.643ZM384.313 133.413C379.273 133.413 374.753 132.573 370.753 130.893C366.753 129.133 363.593 126.733 361.273 123.693C358.953 120.573 357.673 117.013 357.433 113.013H368.713C369.033 116.293 370.553 118.973 373.273 121.053C376.073 123.133 379.713 124.173 384.193 124.173C388.353 124.173 391.633 123.253 394.033 121.413C396.433 119.573 397.633 117.253 397.633 114.453C397.633 111.573 396.353 109.453 393.793 108.093C391.233 106.653 387.273 105.253 381.913 103.893C377.033 102.613 373.033 101.333 369.913 100.053C366.873 98.6931 364.233 96.7331 361.993 94.1731C359.833 91.5331 358.753 88.0931 358.753 83.8531C358.753 80.4931 359.753 77.4131 361.753 74.6131C363.753 71.8131 366.593 69.6131 370.273 68.0131C373.953 66.3331 378.153 65.4931 382.873 65.4931C390.153 65.4931 396.033 67.3331 400.513 71.0131C404.993 74.6931 407.393 79.7331 407.713 86.1331H396.793C396.553 82.6931 395.153 79.9331 392.593 77.8531C390.113 75.7731 386.753 74.7331 382.513 74.7331C378.593 74.7331 375.473 75.5731 373.153 77.2531C370.833 78.9331 369.673 81.1331 369.673 83.8531C369.673 86.0131 370.353 87.8131 371.713 89.2531C373.153 90.6131 374.913 91.7331 376.993 92.6131C379.153 93.4131 382.113 94.3331 385.873 95.3731C390.593 96.6531 394.433 97.9331 397.393 99.2131C400.353 100.413 402.873 102.253 404.953 104.733C407.113 107.213 408.233 110.453 408.313 114.453C408.313 118.053 407.313 121.293 405.313 124.173C403.313 127.053 400.473 129.333 396.793 131.013C393.193 132.613 389.033 133.413 384.313 133.413Z" fill="white"/>
</svg>
