<svg width="1001" height="401" viewBox="0 0 1001 401" fill="none" xmlns="http://www.w3.org/2000/svg">
<rect x="0.803711" y="0.72937" width="1000" height="400" fill="#1E293B"/>
<path d="M306.854 185.377C306.854 202.479 306.854 219.581 306.854 236.775C306.854 237.964 306.762 239.244 306.305 240.341C305.208 243.177 302.281 244.64 299.171 244.091C296.245 243.542 294.233 240.799 294.233 237.323C294.233 230.281 294.233 223.148 294.233 216.106C294.233 188.486 294.233 160.867 294.233 133.247C294.233 129.132 297.891 126.114 301.915 126.846C304.933 127.394 306.854 129.772 306.854 133.065C306.854 142.576 306.854 152.087 306.854 161.507C306.854 169.464 306.854 177.42 306.854 185.377Z" fill="white"/>
<path d="M395.657 185.285C395.657 202.662 395.657 220.038 395.657 237.415C395.657 242.811 390.718 245.92 386.237 243.36C384.042 242.079 383.219 239.976 383.219 237.598C383.127 233.848 383.219 230.007 383.219 226.257C383.219 195.254 383.219 164.251 383.219 133.247C383.219 128.217 387.517 125.291 391.999 127.303C394.559 128.4 395.657 130.504 395.657 133.247C395.657 145.32 395.657 157.392 395.748 169.464C395.657 174.677 395.657 179.981 395.657 185.285Z" fill="white"/>
<path d="M329.626 178.884C344.076 178.884 358.343 178.884 372.793 178.884C372.793 183.091 372.793 187.297 372.793 191.687C354.319 191.687 335.845 191.687 317.28 191.687C317.28 191.23 317.188 190.773 317.188 190.224C317.188 171.11 317.188 151.996 317.188 132.882C317.188 129.223 319.658 126.846 323.316 126.754C326.882 126.663 329.626 129.315 329.626 132.882C329.626 147.606 329.626 162.33 329.718 177.055C329.626 177.603 329.626 178.152 329.626 178.884Z" fill="white"/>
<path d="M372.884 203.302C372.884 205.314 372.884 207.235 372.884 209.155C372.884 218.667 372.884 228.178 372.884 237.598C372.884 242.079 369.318 245.006 365.019 244.091C362.184 243.451 360.355 240.982 360.355 237.506C360.355 227.08 360.447 216.746 360.447 206.32C360.447 205.406 360.447 204.4 360.447 203.302C364.562 203.302 368.586 203.302 372.884 203.302Z" fill="white"/>
<path d="M372.793 167.726C368.678 167.726 364.654 167.726 360.538 167.726C360.538 167.177 360.447 166.812 360.447 166.354C360.447 155.288 360.447 144.131 360.447 133.065C360.447 130.047 361.727 128.126 364.379 127.211C366.94 126.297 369.409 126.571 371.147 128.675C372.061 129.772 372.793 131.327 372.793 132.699C372.976 144.222 372.884 155.745 372.884 167.269C372.884 167.269 372.884 167.452 372.793 167.726Z" fill="white"/>
<path d="M317.28 203.211C321.487 203.211 325.419 203.211 329.535 203.211C329.535 203.668 329.626 204.125 329.626 204.491C329.626 215.557 329.626 226.715 329.626 237.781C329.626 242.171 325.876 245.097 321.578 244C318.834 243.268 317.188 240.982 317.188 237.872C317.188 227.904 317.188 217.935 317.188 207.875C317.28 206.412 317.28 204.857 317.28 203.211Z" fill="white"/>
<path d="M414.242 209.817C414.242 203.097 415.602 197.217 418.322 192.177C421.042 187.057 424.762 183.097 429.482 180.297C434.282 177.497 439.602 176.097 445.442 176.097C451.202 176.097 456.202 177.337 460.442 179.817C464.682 182.297 467.842 185.417 469.922 189.177V177.177H480.962V242.937H469.922V230.697C467.762 234.537 464.522 237.737 460.202 240.297C455.962 242.777 451.002 244.017 445.322 244.017C439.482 244.017 434.202 242.577 429.482 239.697C424.762 236.817 421.042 232.777 418.322 227.577C415.602 222.377 414.242 216.457 414.242 209.817ZM469.922 209.937C469.922 204.977 468.922 200.657 466.922 196.977C464.922 193.297 462.202 190.497 458.762 188.577C455.402 186.577 451.682 185.577 447.602 185.577C443.522 185.577 439.802 186.537 436.442 188.457C433.082 190.377 430.402 193.177 428.402 196.857C426.402 200.537 425.402 204.857 425.402 209.817C425.402 214.857 426.402 219.257 428.402 223.017C430.402 226.697 433.082 229.537 436.442 231.537C439.802 233.457 443.522 234.417 447.602 234.417C451.682 234.417 455.402 233.457 458.762 231.537C462.202 229.537 464.922 226.697 466.922 223.017C468.922 219.257 469.922 214.897 469.922 209.937ZM510.335 189.417C512.575 185.497 515.855 182.297 520.175 179.817C524.495 177.337 529.415 176.097 534.935 176.097C540.855 176.097 546.175 177.497 550.895 180.297C555.615 183.097 559.335 187.057 562.055 192.177C564.775 197.217 566.135 203.097 566.135 209.817C566.135 216.457 564.775 222.377 562.055 227.577C559.335 232.777 555.575 236.817 550.775 239.697C546.055 242.577 540.775 244.017 534.935 244.017C529.255 244.017 524.255 242.777 519.935 240.297C515.695 237.817 512.495 234.657 510.335 230.817V242.937H499.415V154.137H510.335V189.417ZM554.975 209.817C554.975 204.857 553.975 200.537 551.975 196.857C549.975 193.177 547.255 190.377 543.815 188.457C540.455 186.537 536.735 185.577 532.655 185.577C528.655 185.577 524.935 186.577 521.495 188.577C518.135 190.497 515.415 193.337 513.335 197.097C511.335 200.777 510.335 205.057 510.335 209.937C510.335 214.897 511.335 219.257 513.335 223.017C515.415 226.697 518.135 229.537 521.495 231.537C524.935 233.457 528.655 234.417 532.655 234.417C536.735 234.417 540.455 233.457 543.815 231.537C547.255 229.537 549.975 226.697 551.975 223.017C553.975 219.257 554.975 214.857 554.975 209.817ZM586.149 166.497C584.069 166.497 582.309 165.777 580.869 164.337C579.429 162.897 578.709 161.137 578.709 159.057C578.709 156.977 579.429 155.217 580.869 153.777C582.309 152.337 584.069 151.617 586.149 151.617C588.149 151.617 589.829 152.337 591.189 153.777C592.629 155.217 593.349 156.977 593.349 159.057C593.349 161.137 592.629 162.897 591.189 164.337C589.829 165.777 588.149 166.497 586.149 166.497ZM591.429 177.177V242.937H580.509V177.177H591.429ZM623.36 186.177V224.937C623.36 228.137 624.04 230.417 625.4 231.777C626.76 233.057 629.12 233.697 632.48 233.697H640.52V242.937H630.68C624.6 242.937 620.04 241.537 617 238.737C613.96 235.937 612.44 231.337 612.44 224.937V186.177H603.92V177.177H612.44V160.617H623.36V177.177H640.52V186.177H623.36ZM677.031 244.017C671.991 244.017 667.471 243.177 663.471 241.497C659.471 239.737 656.311 237.337 653.991 234.297C651.671 231.177 650.391 227.617 650.151 223.617H661.431C661.751 226.897 663.271 229.577 665.991 231.657C668.791 233.737 672.431 234.777 676.911 234.777C681.071 234.777 684.351 233.857 686.751 232.017C689.151 230.177 690.351 227.857 690.351 225.057C690.351 222.177 689.071 220.057 686.511 218.697C683.951 217.257 679.991 215.857 674.631 214.497C669.751 213.217 665.751 211.937 662.631 210.657C659.591 209.297 656.951 207.337 654.711 204.777C652.551 202.137 651.471 198.697 651.471 194.457C651.471 191.097 652.471 188.017 654.471 185.217C656.471 182.417 659.311 180.217 662.991 178.617C666.671 176.937 670.871 176.097 675.591 176.097C682.871 176.097 688.751 177.937 693.231 181.617C697.711 185.297 700.111 190.337 700.431 196.737H689.511C689.271 193.297 687.871 190.537 685.311 188.457C682.831 186.377 679.471 185.337 675.231 185.337C671.311 185.337 668.191 186.177 665.871 187.857C663.551 189.537 662.391 191.737 662.391 194.457C662.391 196.617 663.071 198.417 664.431 199.857C665.871 201.217 667.631 202.337 669.711 203.217C671.871 204.017 674.831 204.937 678.591 205.977C683.311 207.257 687.151 208.537 690.111 209.817C693.071 211.017 695.591 212.857 697.671 215.337C699.831 217.817 700.951 221.057 701.031 225.057C701.031 228.657 700.031 231.897 698.031 234.777C696.031 237.657 693.191 239.937 689.511 241.617C685.911 243.217 681.751 244.017 677.031 244.017Z" fill="white"/>
</svg>
