<svg width="1001" height="401" viewBox="0 0 1001 401" fill="none" xmlns="http://www.w3.org/2000/svg">
<rect x="0.307617" y="0.729736" width="1000" height="400" fill="#FFF9F0"/>
<path d="M305.6 185.377C305.6 202.479 305.6 219.582 305.6 236.775C305.6 237.964 305.509 239.244 305.052 240.342C303.954 243.177 301.028 244.64 297.918 244.091C294.992 243.543 292.979 240.799 292.979 237.324C292.979 230.282 292.979 223.148 292.979 216.106C292.979 188.487 292.979 160.867 292.979 133.248C292.979 129.132 296.638 126.114 300.662 126.846C303.68 127.395 305.6 129.773 305.6 133.065C305.6 142.576 305.6 152.088 305.6 161.507C305.6 169.464 305.6 177.421 305.6 185.377Z" fill="#FF4E28"/>
<path d="M394.403 185.286C394.403 202.662 394.403 220.039 394.403 237.415C394.403 242.811 389.465 245.921 384.983 243.36C382.789 242.079 381.965 239.976 381.965 237.598C381.874 233.849 381.965 230.007 381.965 226.258C381.965 195.254 381.965 164.251 381.965 133.248C381.965 128.218 386.264 125.291 390.745 127.303C393.306 128.401 394.403 130.504 394.403 133.248C394.403 145.32 394.403 157.392 394.495 169.464C394.403 174.677 394.403 179.981 394.403 185.286Z" fill="#FF4E28"/>
<path d="M328.373 178.884C342.823 178.884 357.09 178.884 371.54 178.884C371.54 183.091 371.54 187.298 371.54 191.688C353.066 191.688 334.592 191.688 316.026 191.688C316.026 191.23 315.935 190.773 315.935 190.224C315.935 171.11 315.935 151.996 315.935 132.882C315.935 129.224 318.404 126.846 322.062 126.754C325.629 126.663 328.373 129.315 328.373 132.882C328.373 147.606 328.373 162.331 328.464 177.055C328.373 177.604 328.373 178.152 328.373 178.884Z" fill="#FF4E28"/>
<path d="M371.631 203.302C371.631 205.314 371.631 207.235 371.631 209.156C371.631 218.667 371.631 228.178 371.631 237.598C371.631 242.079 368.064 245.006 363.766 244.091C360.931 243.451 359.102 240.982 359.102 237.507C359.102 227.081 359.193 216.746 359.193 206.321C359.193 205.406 359.193 204.4 359.193 203.302C363.309 203.302 367.333 203.302 371.631 203.302Z" fill="#FF4E28"/>
<path d="M371.54 167.726C367.424 167.726 363.4 167.726 359.285 167.726C359.285 167.178 359.193 166.812 359.193 166.355C359.193 155.289 359.193 144.131 359.193 133.065C359.193 130.047 360.474 128.126 363.126 127.212C365.686 126.297 368.156 126.572 369.893 128.675C370.808 129.773 371.54 131.327 371.54 132.699C371.723 144.222 371.631 155.746 371.631 167.269C371.631 167.269 371.631 167.452 371.54 167.726Z" fill="#FF4E28"/>
<path d="M316.026 203.211C320.233 203.211 324.166 203.211 328.281 203.211C328.281 203.668 328.373 204.126 328.373 204.491C328.373 215.557 328.373 226.715 328.373 237.781C328.373 242.171 324.623 245.097 320.325 244C317.581 243.268 315.935 240.982 315.935 237.873C315.935 227.904 315.935 217.935 315.935 207.875C316.026 206.412 316.026 204.857 316.026 203.211Z" fill="#FF4E28"/>
<path d="M414.503 209.817C414.503 203.097 415.863 197.217 418.583 192.177C421.303 187.057 425.023 183.097 429.743 180.297C434.543 177.497 439.863 176.097 445.703 176.097C451.463 176.097 456.463 177.337 460.703 179.817C464.943 182.297 468.103 185.417 470.183 189.177V177.177H481.223V242.937H470.183V230.697C468.023 234.537 464.783 237.737 460.463 240.297C456.223 242.777 451.263 244.017 445.583 244.017C439.743 244.017 434.463 242.577 429.743 239.697C425.023 236.817 421.303 232.777 418.583 227.577C415.863 222.377 414.503 216.457 414.503 209.817ZM470.183 209.937C470.183 204.977 469.183 200.657 467.183 196.977C465.183 193.297 462.463 190.497 459.023 188.577C455.663 186.577 451.943 185.577 447.863 185.577C443.783 185.577 440.063 186.537 436.703 188.457C433.343 190.377 430.663 193.177 428.663 196.857C426.663 200.537 425.663 204.857 425.663 209.817C425.663 214.857 426.663 219.257 428.663 223.017C430.663 226.697 433.343 229.537 436.703 231.537C440.063 233.457 443.783 234.417 447.863 234.417C451.943 234.417 455.663 233.457 459.023 231.537C462.463 229.537 465.183 226.697 467.183 223.017C469.183 219.257 470.183 214.897 470.183 209.937ZM510.597 189.417C512.837 185.497 516.117 182.297 520.437 179.817C524.757 177.337 529.677 176.097 535.197 176.097C541.117 176.097 546.437 177.497 551.157 180.297C555.877 183.097 559.597 187.057 562.317 192.177C565.037 197.217 566.397 203.097 566.397 209.817C566.397 216.457 565.037 222.377 562.317 227.577C559.597 232.777 555.837 236.817 551.037 239.697C546.317 242.577 541.037 244.017 535.197 244.017C529.517 244.017 524.517 242.777 520.197 240.297C515.957 237.817 512.757 234.657 510.597 230.817V242.937H499.677V154.137H510.597V189.417ZM555.237 209.817C555.237 204.857 554.237 200.537 552.237 196.857C550.237 193.177 547.517 190.377 544.077 188.457C540.717 186.537 536.997 185.577 532.917 185.577C528.917 185.577 525.197 186.577 521.757 188.577C518.397 190.497 515.677 193.337 513.597 197.097C511.597 200.777 510.597 205.057 510.597 209.937C510.597 214.897 511.597 219.257 513.597 223.017C515.677 226.697 518.397 229.537 521.757 231.537C525.197 233.457 528.917 234.417 532.917 234.417C536.997 234.417 540.717 233.457 544.077 231.537C547.517 229.537 550.237 226.697 552.237 223.017C554.237 219.257 555.237 214.857 555.237 209.817ZM586.411 166.497C584.331 166.497 582.571 165.777 581.131 164.337C579.691 162.897 578.971 161.137 578.971 159.057C578.971 156.977 579.691 155.217 581.131 153.777C582.571 152.337 584.331 151.617 586.411 151.617C588.411 151.617 590.091 152.337 591.451 153.777C592.891 155.217 593.611 156.977 593.611 159.057C593.611 161.137 592.891 162.897 591.451 164.337C590.091 165.777 588.411 166.497 586.411 166.497ZM591.691 177.177V242.937H580.771V177.177H591.691ZM623.622 186.177V224.937C623.622 228.137 624.302 230.417 625.662 231.777C627.022 233.057 629.382 233.697 632.742 233.697H640.782V242.937H630.942C624.862 242.937 620.302 241.537 617.262 238.737C614.222 235.937 612.702 231.337 612.702 224.937V186.177H604.182V177.177H612.702V160.617H623.622V177.177H640.782V186.177H623.622ZM677.293 244.017C672.253 244.017 667.733 243.177 663.733 241.497C659.733 239.737 656.573 237.337 654.253 234.297C651.933 231.177 650.653 227.617 650.413 223.617H661.693C662.013 226.897 663.533 229.577 666.253 231.657C669.053 233.737 672.693 234.777 677.173 234.777C681.333 234.777 684.613 233.857 687.013 232.017C689.413 230.177 690.613 227.857 690.613 225.057C690.613 222.177 689.333 220.057 686.773 218.697C684.213 217.257 680.253 215.857 674.893 214.497C670.013 213.217 666.013 211.937 662.893 210.657C659.853 209.297 657.213 207.337 654.973 204.777C652.813 202.137 651.733 198.697 651.733 194.457C651.733 191.097 652.733 188.017 654.733 185.217C656.733 182.417 659.573 180.217 663.253 178.617C666.933 176.937 671.133 176.097 675.853 176.097C683.133 176.097 689.013 177.937 693.493 181.617C697.973 185.297 700.373 190.337 700.693 196.737H689.773C689.533 193.297 688.133 190.537 685.573 188.457C683.093 186.377 679.733 185.337 675.493 185.337C671.573 185.337 668.453 186.177 666.133 187.857C663.813 189.537 662.653 191.737 662.653 194.457C662.653 196.617 663.333 198.417 664.693 199.857C666.133 201.217 667.893 202.337 669.973 203.217C672.133 204.017 675.093 204.937 678.853 205.977C683.573 207.257 687.413 208.537 690.373 209.817C693.333 211.017 695.853 212.857 697.933 215.337C700.093 217.817 701.213 221.057 701.293 225.057C701.293 228.657 700.293 231.897 698.293 234.777C696.293 237.657 693.453 239.937 689.773 241.617C686.173 243.217 682.013 244.017 677.293 244.017Z" fill="#FF4E28"/>
</svg>
