<svg width="416" height="181" viewBox="0 0 416 181" fill="none" xmlns="http://www.w3.org/2000/svg">
<path d="M12.9846 74.773C12.9846 91.8751 12.9846 108.977 12.9846 126.171C12.9846 127.36 12.8931 128.64 12.4358 129.738C11.3384 132.573 8.41183 134.036 5.30235 133.487C2.37578 132.939 0.36377 130.195 0.36377 126.72C0.36377 119.678 0.36377 112.544 0.36377 105.502C0.36377 77.8825 0.36377 50.263 0.36377 22.6436C0.36377 18.5281 4.02198 15.5101 8.046 16.2417C11.064 16.7904 12.9846 19.1683 12.9846 22.4607C12.9846 31.972 12.9846 41.4833 12.9846 50.9032C12.9846 58.8598 12.9846 66.8164 12.9846 74.773Z" fill="#1E293B"/>
<path d="M101.788 74.6816C101.788 92.0581 101.788 109.435 101.788 126.811C101.788 132.207 96.849 135.316 92.3677 132.756C90.1728 131.475 89.3497 129.372 89.3497 126.994C89.2582 123.244 89.3497 119.403 89.3497 115.653C89.3497 84.6502 89.3497 53.6469 89.3497 22.6436C89.3497 17.6135 93.6481 14.687 98.1294 16.699C100.69 17.7965 101.788 19.8999 101.788 22.6436C101.788 34.7157 101.788 46.7877 101.879 58.8598C101.788 64.0728 101.788 69.3772 101.788 74.6816Z" fill="#1E293B"/>
<path d="M35.757 68.2797C50.2069 68.2797 64.4739 68.2797 78.9239 68.2797C78.9239 72.4866 78.9239 76.6936 78.9239 81.0834C60.4499 81.0834 41.976 81.0834 23.4106 81.0834C23.4106 80.6261 23.3191 80.1689 23.3191 79.6201C23.3191 60.506 23.3191 41.3919 23.3191 22.2777C23.3191 18.6195 25.7884 16.2417 29.4466 16.1502C33.0134 16.0588 35.757 18.711 35.757 22.2777C35.757 37.002 35.757 51.7263 35.8485 66.4506C35.757 66.9993 35.757 67.5481 35.757 68.2797Z" fill="#1E293B"/>
<path d="M79.0153 92.6982C79.0153 94.7102 79.0153 96.6308 79.0153 98.5514C79.0153 108.063 79.0153 117.574 79.0153 126.994C79.0153 131.475 75.4485 134.402 71.1501 133.487C68.315 132.847 66.4859 130.378 66.4859 126.902C66.4859 116.477 66.5774 106.142 66.5774 95.7163C66.5774 94.8017 66.5774 93.7957 66.5774 92.6982C70.6928 92.6982 74.7169 92.6982 79.0153 92.6982Z" fill="#1E293B"/>
<path d="M78.9239 57.1222C74.8084 57.1222 70.7844 57.1222 66.6689 57.1222C66.6689 56.5734 66.5774 56.2076 66.5774 55.7503C66.5774 44.6843 66.5774 33.5267 66.5774 22.4607C66.5774 19.4426 67.8578 17.5221 70.51 16.6075C73.0708 15.693 75.54 15.9673 77.2777 18.0708C78.1922 19.1683 78.9239 20.723 78.9239 22.0948C79.1068 33.6182 79.0153 45.1415 79.0153 56.6649C79.0153 56.6649 79.0153 56.8478 78.9239 57.1222Z" fill="#1E293B"/>
<path d="M23.4106 92.6068C27.6175 92.6068 31.5501 92.6068 35.6656 92.6068C35.6656 93.064 35.757 93.5213 35.757 93.8871C35.757 104.953 35.757 116.111 35.757 127.177C35.757 131.567 32.0073 134.493 27.709 133.396C24.9653 132.664 23.3191 130.378 23.3191 127.268C23.3191 117.3 23.3191 107.331 23.3191 97.271C23.4106 95.8077 23.4106 94.253 23.4106 92.6068Z" fill="#1E293B"/>
<path d="M121.888 99.2131C121.888 92.4931 123.248 86.6131 125.968 81.5731C128.688 76.4531 132.408 72.4931 137.128 69.6931C141.928 66.8931 147.248 65.4931 153.088 65.4931C158.848 65.4931 163.848 66.7331 168.088 69.2131C172.328 71.6931 175.488 74.8131 177.568 78.5731V66.5731H188.608V132.333H177.568V120.093C175.408 123.933 172.168 127.133 167.848 129.693C163.608 132.173 158.648 133.413 152.968 133.413C147.128 133.413 141.848 131.973 137.128 129.093C132.408 126.213 128.688 122.173 125.968 116.973C123.248 111.773 121.888 105.853 121.888 99.2131ZM177.568 99.3331C177.568 94.3731 176.568 90.0531 174.568 86.3731C172.568 82.6931 169.848 79.8931 166.408 77.9731C163.048 75.9731 159.328 74.9731 155.248 74.9731C151.168 74.9731 147.448 75.9331 144.088 77.8531C140.728 79.7731 138.048 82.5731 136.048 86.2531C134.048 89.9331 133.048 94.2531 133.048 99.2131C133.048 104.253 134.048 108.653 136.048 112.413C138.048 116.093 140.728 118.933 144.088 120.933C147.448 122.853 151.168 123.813 155.248 123.813C159.328 123.813 163.048 122.853 166.408 120.933C169.848 118.933 172.568 116.093 174.568 112.413C176.568 108.653 177.568 104.293 177.568 99.3331ZM217.981 78.8131C220.221 74.8931 223.501 71.6931 227.821 69.2131C232.141 66.7331 237.061 65.4931 242.581 65.4931C248.501 65.4931 253.821 66.8931 258.541 69.6931C263.261 72.4931 266.981 76.4531 269.701 81.5731C272.421 86.6131 273.781 92.4931 273.781 99.2131C273.781 105.853 272.421 111.773 269.701 116.973C266.981 122.173 263.221 126.213 258.421 129.093C253.701 131.973 248.421 133.413 242.581 133.413C236.901 133.413 231.901 132.173 227.581 129.693C223.341 127.213 220.141 124.053 217.981 120.213V132.333H207.061V43.5331H217.981V78.8131ZM262.621 99.2131C262.621 94.2531 261.621 89.9331 259.621 86.2531C257.621 82.5731 254.901 79.7731 251.461 77.8531C248.101 75.9331 244.381 74.9731 240.301 74.9731C236.301 74.9731 232.581 75.9731 229.141 77.9731C225.781 79.8931 223.061 82.7331 220.981 86.4931C218.981 90.1731 217.981 94.4531 217.981 99.3331C217.981 104.293 218.981 108.653 220.981 112.413C223.061 116.093 225.781 118.933 229.141 120.933C232.581 122.853 236.301 123.813 240.301 123.813C244.381 123.813 248.101 122.853 251.461 120.933C254.901 118.933 257.621 116.093 259.621 112.413C261.621 108.653 262.621 104.253 262.621 99.2131ZM293.795 55.8931C291.715 55.8931 289.955 55.1731 288.515 53.7331C287.075 52.2931 286.355 50.5331 286.355 48.4531C286.355 46.3731 287.075 44.6131 288.515 43.1731C289.955 41.7331 291.715 41.0131 293.795 41.0131C295.795 41.0131 297.475 41.7331 298.835 43.1731C300.275 44.6131 300.995 46.3731 300.995 48.4531C300.995 50.5331 300.275 52.2931 298.835 53.7331C297.475 55.1731 295.795 55.8931 293.795 55.8931ZM299.075 66.5731V132.333H288.155V66.5731H299.075ZM331.006 75.5731V114.333C331.006 117.533 331.686 119.813 333.046 121.173C334.406 122.453 336.766 123.093 340.126 123.093H348.166V132.333H338.326C332.246 132.333 327.686 130.933 324.646 128.133C321.606 125.333 320.086 120.733 320.086 114.333V75.5731H311.566V66.5731H320.086V50.0131H331.006V66.5731H348.166V75.5731H331.006ZM384.677 133.413C379.637 133.413 375.117 132.573 371.117 130.893C367.117 129.133 363.957 126.733 361.637 123.693C359.317 120.573 358.037 117.013 357.797 113.013H369.077C369.397 116.293 370.917 118.973 373.637 121.053C376.437 123.133 380.077 124.173 384.557 124.173C388.717 124.173 391.997 123.253 394.397 121.413C396.797 119.573 397.997 117.253 397.997 114.453C397.997 111.573 396.717 109.453 394.157 108.093C391.597 106.653 387.637 105.253 382.277 103.893C377.397 102.613 373.397 101.333 370.277 100.053C367.237 98.6931 364.597 96.7331 362.357 94.1731C360.197 91.5331 359.117 88.0931 359.117 83.8531C359.117 80.4931 360.117 77.4131 362.117 74.6131C364.117 71.8131 366.957 69.6131 370.637 68.0131C374.317 66.3331 378.517 65.4931 383.237 65.4931C390.517 65.4931 396.397 67.3331 400.877 71.0131C405.357 74.6931 407.757 79.7331 408.077 86.1331H397.157C396.917 82.6931 395.517 79.9331 392.957 77.8531C390.477 75.7731 387.117 74.7331 382.877 74.7331C378.957 74.7331 375.837 75.5731 373.517 77.2531C371.197 78.9331 370.037 81.1331 370.037 83.8531C370.037 86.0131 370.717 87.8131 372.077 89.2531C373.517 90.6131 375.277 91.7331 377.357 92.6131C379.517 93.4131 382.477 94.3331 386.237 95.3731C390.957 96.6531 394.797 97.9331 397.757 99.2131C400.717 100.413 403.237 102.253 405.317 104.733C407.477 107.213 408.597 110.453 408.677 114.453C408.677 118.053 407.677 121.293 405.677 124.173C403.677 127.053 400.837 129.333 397.157 131.013C393.557 132.613 389.397 133.413 384.677 133.413Z" fill="#1E293B"/>
</svg>
