<svg width="346" height="401" viewBox="0 0 346 401" fill="none" xmlns="http://www.w3.org/2000/svg">
<path d="M42.9248 200.029C42.9248 258.195 42.9248 316.361 42.9248 374.839C42.9248 378.882 42.6137 383.237 41.0585 386.97C37.3259 396.612 27.3723 401.589 16.7967 399.723C6.84309 397.856 0 388.525 0 376.705C0 352.754 0 328.492 0 304.542C0 210.605 0 116.668 0 22.731C0 8.73381 12.442 -1.53081 26.1281 0.957583C36.3928 2.82388 42.9248 10.9111 42.9248 22.1089C42.9248 54.458 42.9248 86.8072 42.9248 118.845C42.9248 145.907 42.9248 172.968 42.9248 200.029Z" fill="white"/>
<path d="M344.954 199.718C344.954 258.817 344.954 317.917 344.954 377.016C344.954 395.368 328.157 405.944 312.916 397.234C305.45 392.88 302.651 385.725 302.651 377.638C302.34 364.885 302.651 351.821 302.651 339.068C302.651 233.622 302.651 128.177 302.651 22.731C302.651 5.62333 317.27 -4.33024 332.512 2.51284C341.221 6.24543 344.954 13.3996 344.954 22.731C344.954 63.7895 344.954 104.848 345.265 145.907C344.954 163.636 344.954 181.677 344.954 199.718Z" fill="white"/>
<path d="M120.376 177.945C169.522 177.945 218.046 177.945 267.192 177.945C267.192 192.253 267.192 206.561 267.192 221.491C204.36 221.491 141.528 221.491 78.3847 221.491C78.3847 219.936 78.0736 218.381 78.0736 216.515C78.0736 151.505 78.0736 86.4961 78.0736 21.4868C78.0736 9.04482 86.472 0.957547 98.9139 0.646498C111.045 0.335448 120.376 9.35586 120.376 21.4868C120.376 71.5657 120.376 121.645 120.687 171.724C120.376 173.59 120.376 175.456 120.376 177.945Z" fill="white"/>
<path d="M267.502 260.995C267.502 267.838 267.502 274.37 267.502 280.902C267.502 313.251 267.502 345.6 267.502 377.638C267.502 392.88 255.372 402.833 240.752 399.723C231.11 397.545 224.889 389.147 224.889 377.327C224.889 341.867 225.2 306.719 225.2 271.259C225.2 268.149 225.2 264.727 225.2 260.995C239.197 260.995 252.883 260.995 267.502 260.995Z" fill="white"/>
<path d="M267.192 139.997C253.194 139.997 239.508 139.997 225.511 139.997C225.511 138.13 225.2 136.886 225.2 135.331C225.2 97.6939 225.2 59.7458 225.2 22.1089C225.2 11.8443 229.555 5.31225 238.575 2.20175C247.285 -0.908738 255.683 0.024405 261.593 7.17854C264.703 10.9111 267.192 16.199 267.192 20.8647C267.814 60.0569 267.503 99.2491 267.503 138.441C267.503 138.441 267.503 139.063 267.192 139.997Z" fill="white"/>
<path d="M78.3847 260.684C92.6929 260.684 106.068 260.684 120.065 260.684C120.065 262.239 120.376 263.794 120.376 265.038C120.376 302.675 120.376 340.623 120.376 378.26C120.376 393.191 107.623 403.144 93.004 399.412C83.6725 396.923 78.0736 389.147 78.0736 378.571C78.0736 344.667 78.0736 310.763 78.0736 276.547C78.3847 271.57 78.3847 266.283 78.3847 260.684Z" fill="white"/>
</svg>
