<svg width="346" height="401" viewBox="0 0 346 401" fill="none" xmlns="http://www.w3.org/2000/svg">
<path d="M43.0166 200.029C43.0166 258.195 43.0166 316.361 43.0166 374.839C43.0166 378.882 42.7055 383.237 41.1503 386.97C37.4177 396.612 27.4641 401.589 16.8885 399.723C6.93488 397.856 0.0917969 388.525 0.0917969 376.705C0.0917969 352.754 0.0917969 328.492 0.0917969 304.542C0.0917969 210.605 0.0917969 116.668 0.0917969 22.731C0.0917969 8.73381 12.5338 -1.53081 26.2199 0.957583C36.4846 2.82388 43.0166 10.9111 43.0166 22.1089C43.0166 54.458 43.0166 86.8072 43.0166 118.845C43.0166 145.907 43.0166 172.968 43.0166 200.029Z" fill="black"/>
<path d="M345.046 199.718C345.046 258.817 345.046 317.917 345.046 377.016C345.046 395.368 328.249 405.944 313.007 397.234C305.542 392.88 302.743 385.725 302.743 377.638C302.432 364.885 302.743 351.821 302.743 339.068C302.743 233.622 302.743 128.177 302.743 22.731C302.743 5.62333 317.362 -4.33024 332.604 2.51284C341.313 6.24543 345.046 13.3996 345.046 22.731C345.046 63.7895 345.045 104.848 345.357 145.907C345.045 163.636 345.046 181.677 345.046 199.718Z" fill="black"/>
<path d="M120.468 177.945C169.614 177.945 218.138 177.945 267.283 177.945C267.283 192.253 267.283 206.561 267.283 221.491C204.451 221.491 141.619 221.491 78.4765 221.491C78.4765 219.936 78.1654 218.381 78.1654 216.515C78.1654 151.505 78.1654 86.4961 78.1654 21.4868C78.1654 9.04482 86.5638 0.957547 99.0057 0.646498C111.137 0.335448 120.468 9.35586 120.468 21.4868C120.468 71.5657 120.468 121.645 120.779 171.724C120.468 173.59 120.468 175.456 120.468 177.945Z" fill="black"/>
<path d="M267.594 260.995C267.594 267.838 267.594 274.37 267.594 280.902C267.594 313.251 267.594 345.6 267.594 377.638C267.594 392.88 255.463 402.833 240.844 399.723C231.202 397.545 224.981 389.147 224.981 377.327C224.981 341.867 225.292 306.719 225.292 271.259C225.292 268.149 225.292 264.727 225.292 260.995C239.289 260.995 252.975 260.995 267.594 260.995Z" fill="black"/>
<path d="M267.283 139.997C253.286 139.997 239.6 139.997 225.603 139.997C225.603 138.13 225.292 136.886 225.292 135.331C225.292 97.6939 225.292 59.7458 225.292 22.1089C225.292 11.8443 229.647 5.31225 238.667 2.20175C247.376 -0.908738 255.775 0.024405 261.685 7.17854C264.795 10.9111 267.283 16.199 267.283 20.8647C267.906 60.0569 267.595 99.2491 267.595 138.441C267.595 138.441 267.595 139.063 267.283 139.997Z" fill="black"/>
<path d="M78.4765 260.684C92.7847 260.684 106.16 260.684 120.157 260.684C120.157 262.239 120.468 263.794 120.468 265.038C120.468 302.675 120.468 340.623 120.468 378.26C120.468 393.191 107.715 403.144 93.0958 399.412C83.7643 396.923 78.1654 389.147 78.1654 378.571C78.1654 344.667 78.1654 310.763 78.1654 276.547C78.4765 271.57 78.4765 266.283 78.4765 260.684Z" fill="black"/>
</svg>
