<svg width="346" height="401" viewBox="0 0 346 401" fill="none" xmlns="http://www.w3.org/2000/svg">
<path d="M43.4707 200.029C43.4707 258.195 43.4707 316.361 43.4707 374.839C43.4707 378.882 43.1596 383.237 41.6044 386.97C37.8718 396.612 27.9182 401.589 17.3426 399.723C7.38898 397.856 0.545898 388.525 0.545898 376.705C0.545898 352.754 0.545898 328.492 0.545898 304.542C0.545898 210.605 0.545898 116.668 0.545898 22.731C0.545898 8.73381 12.9879 -1.53081 26.674 0.957583C36.9387 2.82388 43.4707 10.9111 43.4707 22.1089C43.4707 54.458 43.4707 86.8072 43.4707 118.845C43.4707 145.907 43.4707 172.968 43.4707 200.029Z" fill="#FF4E28"/>
<path d="M345.5 199.718C345.5 258.817 345.5 317.917 345.5 377.016C345.5 395.368 328.703 405.944 313.462 397.234C305.996 392.88 303.197 385.725 303.197 377.638C302.886 364.885 303.197 351.821 303.197 339.068C303.197 233.622 303.197 128.177 303.197 22.731C303.197 5.62333 317.816 -4.33024 333.058 2.51284C341.767 6.24543 345.5 13.3996 345.5 22.731C345.5 63.7895 345.5 104.848 345.811 145.907C345.5 163.636 345.5 181.677 345.5 199.718Z" fill="#FF4E28"/>
<path d="M120.922 177.945C170.068 177.945 218.592 177.945 267.737 177.945C267.737 192.253 267.737 206.561 267.737 221.491C204.906 221.491 142.074 221.491 78.9306 221.491C78.9306 219.936 78.6195 218.381 78.6195 216.515C78.6195 151.505 78.6195 86.4961 78.6195 21.4868C78.6195 9.04482 87.0179 0.957547 99.4598 0.646498C111.591 0.335448 120.922 9.35586 120.922 21.4868C120.922 71.5657 120.922 121.645 121.233 171.724C120.922 173.59 120.922 175.456 120.922 177.945Z" fill="#FF4E28"/>
<path d="M268.048 260.995C268.048 267.838 268.048 274.37 268.048 280.902C268.048 313.251 268.048 345.6 268.048 377.638C268.048 392.88 255.917 402.833 241.298 399.723C231.656 397.545 225.435 389.147 225.435 377.327C225.435 341.867 225.746 306.719 225.746 271.259C225.746 268.149 225.746 264.727 225.746 260.995C239.743 260.995 253.429 260.995 268.048 260.995Z" fill="#FF4E28"/>
<path d="M267.738 139.997C253.74 139.997 240.054 139.997 226.057 139.997C226.057 138.13 225.746 136.886 225.746 135.331C225.746 97.6939 225.746 59.7458 225.746 22.1089C225.746 11.8443 230.101 5.31225 239.121 2.20175C247.83 -0.908738 256.229 0.024405 262.139 7.17854C265.249 10.9111 267.738 16.199 267.738 20.8647C268.36 60.0569 268.049 99.2491 268.049 138.441C268.049 138.441 268.049 139.063 267.738 139.997Z" fill="#FF4E28"/>
<path d="M78.9306 260.684C93.2388 260.684 106.614 260.684 120.611 260.684C120.611 262.239 120.922 263.794 120.922 265.038C120.922 302.675 120.922 340.623 120.922 378.26C120.922 393.191 108.169 403.144 93.5499 399.412C84.2184 396.923 78.6195 389.147 78.6195 378.571C78.6195 344.667 78.6195 310.763 78.6195 276.547C78.9306 271.57 78.9306 266.283 78.9306 260.684Z" fill="#FF4E28"/>
</svg>
